<svg width="281" height="56" viewBox="0 0 281 56" fill="none" xmlns="http://www.w3.org/2000/svg">
<g filter="url(#filter0_d)">
<path d="M55.8422 3.4L44.5142 37H40.7702L30.9302 8.344L21.0422 37H17.3462L6.01819 3.4H9.66619L19.3622 32.296L29.3942 3.4H32.7062L42.5942 32.44L52.4342 3.4H55.8422ZM61.4942 11.752H64.9022V37H61.4942V11.752ZM63.2222 6.232C62.5182 6.232 61.9262 5.992 61.4462 5.512C60.9662 5.032 60.7262 4.456 60.7262 3.784C60.7262 3.144 60.9662 2.584 61.4462 2.104C61.9262 1.624 62.5182 1.384 63.2222 1.384C63.9262 1.384 64.5182 1.624 64.9982 2.104C65.4782 2.552 65.7182 3.096 65.7182 3.736C65.7182 4.44 65.4782 5.032 64.9982 5.512C64.5182 5.992 63.9262 6.232 63.2222 6.232ZM74.3848 1.384H77.7928V37H74.3848V1.384ZM87.2754 1.384H90.6834V37H87.2754V1.384ZM121.382 11.752L108.758 40.024C107.734 42.392 106.55 44.072 105.206 45.064C103.862 46.056 102.246 46.552 100.358 46.552C99.1421 46.552 98.0061 46.36 96.9501 45.976C95.8941 45.592 94.9821 45.016 94.2141 44.248L95.7981 41.704C97.0781 42.984 98.6141 43.624 100.406 43.624C101.558 43.624 102.534 43.304 103.334 42.664C104.166 42.024 104.934 40.936 105.638 39.4L106.742 36.952L95.4621 11.752H99.0141L108.518 33.208L118.022 11.752H121.382ZM139.464 3.4H143.016V33.928H161.832V37H139.464V3.4ZM176.955 37.24C174.523 37.24 172.331 36.696 170.379 35.608C168.427 34.488 166.891 32.952 165.771 31C164.651 29.048 164.091 26.84 164.091 24.376C164.091 21.912 164.651 19.704 165.771 17.752C166.891 15.8 168.427 14.28 170.379 13.192C172.331 12.104 174.523 11.56 176.955 11.56C179.387 11.56 181.579 12.104 183.531 13.192C185.483 14.28 187.003 15.8 188.091 17.752C189.211 19.704 189.771 21.912 189.771 24.376C189.771 26.84 189.211 29.048 188.091 31C187.003 32.952 185.483 34.488 183.531 35.608C181.579 36.696 179.387 37.24 176.955 37.24ZM176.955 34.216C178.747 34.216 180.347 33.816 181.755 33.016C183.195 32.184 184.315 31.016 185.115 29.512C185.915 28.008 186.315 26.296 186.315 24.376C186.315 22.456 185.915 20.744 185.115 19.24C184.315 17.736 183.195 16.584 181.755 15.784C180.347 14.952 178.747 14.536 176.955 14.536C175.163 14.536 173.547 14.952 172.107 15.784C170.699 16.584 169.579 17.736 168.747 19.24C167.947 20.744 167.547 22.456 167.547 24.376C167.547 26.296 167.947 28.008 168.747 29.512C169.579 31.016 170.699 32.184 172.107 33.016C173.547 33.816 175.163 34.216 176.955 34.216ZM209.737 11.56C212.105 11.56 214.249 12.104 216.169 13.192C218.089 14.248 219.593 15.752 220.681 17.704C221.769 19.656 222.313 21.88 222.313 24.376C222.313 26.904 221.769 29.144 220.681 31.096C219.593 33.048 218.089 34.568 216.169 35.656C214.281 36.712 212.137 37.24 209.737 37.24C207.689 37.24 205.833 36.824 204.169 35.992C202.537 35.128 201.193 33.88 200.137 32.248V46.312H196.729V11.752H199.993V16.744C201.017 15.08 202.361 13.8 204.025 12.904C205.721 12.008 207.625 11.56 209.737 11.56ZM209.497 34.216C211.257 34.216 212.857 33.816 214.297 33.016C215.737 32.184 216.857 31.016 217.657 29.512C218.489 28.008 218.905 26.296 218.905 24.376C218.905 22.456 218.489 20.76 217.657 19.288C216.857 17.784 215.737 16.616 214.297 15.784C212.857 14.952 211.257 14.536 209.497 14.536C207.705 14.536 206.089 14.952 204.649 15.784C203.241 16.616 202.121 17.784 201.289 19.288C200.489 20.76 200.089 22.456 200.089 24.376C200.089 26.296 200.489 28.008 201.289 29.512C202.121 31.016 203.241 32.184 204.649 33.016C206.089 33.816 207.705 34.216 209.497 34.216ZM251.244 25.432H230.124C230.316 28.056 231.324 30.184 233.148 31.816C234.972 33.416 237.276 34.216 240.06 34.216C241.628 34.216 243.068 33.944 244.38 33.4C245.692 32.824 246.828 31.992 247.788 30.904L249.708 33.112C248.588 34.456 247.18 35.48 245.484 36.184C243.82 36.888 241.98 37.24 239.964 37.24C237.372 37.24 235.068 36.696 233.052 35.608C231.068 34.488 229.516 32.952 228.396 31C227.276 29.048 226.716 26.84 226.716 24.376C226.716 21.912 227.244 19.704 228.3 17.752C229.388 15.8 230.86 14.28 232.716 13.192C234.604 12.104 236.716 11.56 239.052 11.56C241.388 11.56 243.484 12.104 245.34 13.192C247.196 14.28 248.652 15.8 249.708 17.752C250.764 19.672 251.292 21.88 251.292 24.376L251.244 25.432ZM239.052 14.488C236.62 14.488 234.572 15.272 232.908 16.84C231.276 18.376 230.348 20.392 230.124 22.888H248.028C247.804 20.392 246.86 18.376 245.196 16.84C243.564 15.272 241.516 14.488 239.052 14.488ZM275.802 34.168V37H255.258V34.744L271.146 14.632H255.546V11.752H275.514V14.008L259.626 34.168H275.802Z" fill="black"/>
<path d="M55.8422 3.4L56.7898 3.71947L57.2346 2.4H55.8422V3.4ZM44.5142 37V38H45.2324L45.4618 37.3195L44.5142 37ZM40.7702 37L39.8244 37.3248L40.0563 38H40.7702V37ZM30.9302 8.344L31.876 8.01923L30.9325 5.2716L29.9849 8.01781L30.9302 8.344ZM21.0422 37V38H21.755L21.9875 37.3262L21.0422 37ZM17.3462 37L16.3986 37.3195L16.628 38H17.3462V37ZM6.01819 3.4V2.4H4.62574L5.07059 3.71947L6.01819 3.4ZM9.66619 3.4L10.6142 3.08188L10.3854 2.4H9.66619V3.4ZM19.3622 32.296L18.4141 32.6141L19.3461 35.3915L20.3069 32.624L19.3622 32.296ZM29.3942 3.4V2.4H28.6828L28.4495 3.07202L29.3942 3.4ZM32.7062 3.4L33.6528 3.07767L33.4221 2.4H32.7062V3.4ZM42.5942 32.44L41.6476 32.7623L42.5965 35.5492L43.5413 32.7609L42.5942 32.44ZM52.4342 3.4V2.4H51.7172L51.4871 3.07908L52.4342 3.4ZM54.8946 3.08052L43.5666 36.6805L45.4618 37.3195L56.7898 3.71947L54.8946 3.08052ZM44.5142 36H40.7702V38H44.5142V36ZM41.716 36.6752L31.876 8.01923L29.9844 8.66877L39.8244 37.3248L41.716 36.6752ZM29.9849 8.01781L20.0969 36.6738L21.9875 37.3262L31.8755 8.67019L29.9849 8.01781ZM21.0422 36H17.3462V38H21.0422V36ZM18.2938 36.6805L6.96578 3.08052L5.07059 3.71947L16.3986 37.3195L18.2938 36.6805ZM6.01819 4.4H9.66619V2.4H6.01819V4.4ZM8.71814 3.71811L18.4141 32.6141L20.3102 31.9779L10.6142 3.08188L8.71814 3.71811ZM20.3069 32.624L30.3389 3.72797L28.4495 3.07202L18.4175 31.968L20.3069 32.624ZM29.3942 4.4H32.7062V2.4H29.3942V4.4ZM31.7596 3.72232L41.6476 32.7623L43.5408 32.1177L33.6528 3.07767L31.7596 3.72232ZM43.5413 32.7609L53.3813 3.72092L51.4871 3.07908L41.6471 32.1191L43.5413 32.7609ZM52.4342 4.4H55.8422V2.4H52.4342V4.4ZM61.4942 11.752V10.752H60.4942V11.752H61.4942ZM64.9022 11.752H65.9022V10.752H64.9022V11.752ZM64.9022 37V38H65.9022V37H64.9022ZM61.4942 37H60.4942V38H61.4942V37ZM61.4462 2.104L60.7391 1.39689L60.7391 1.39689L61.4462 2.104ZM64.9982 2.104L64.2911 2.8111L64.3033 2.82329L64.3159 2.83505L64.9982 2.104ZM61.4942 12.752H64.9022V10.752H61.4942V12.752ZM63.9022 11.752V37H65.9022V11.752H63.9022ZM64.9022 36H61.4942V38H64.9022V36ZM62.4942 37V11.752H60.4942V37H62.4942ZM63.2222 5.232C62.7724 5.232 62.4381 5.08973 62.1533 4.80489L60.7391 6.21911C61.4142 6.89427 62.264 7.232 63.2222 7.232V5.232ZM62.1533 4.80489C61.8587 4.51029 61.7262 4.18777 61.7262 3.784H59.7262C59.7262 4.72423 60.0737 5.55371 60.7391 6.21911L62.1533 4.80489ZM61.7262 3.784C61.7262 3.42655 61.8482 3.11619 62.1533 2.8111L60.7391 1.39689C60.0842 2.0518 59.7262 2.86145 59.7262 3.784H61.7262ZM62.1533 2.8111C62.4381 2.52627 62.7724 2.384 63.2222 2.384V0.383998C62.264 0.383998 61.4142 0.721728 60.7391 1.39689L62.1533 2.8111ZM63.2222 2.384C63.672 2.384 64.0062 2.52627 64.2911 2.8111L65.7053 1.39689C65.0301 0.721728 64.1804 0.383998 63.2222 0.383998V2.384ZM64.3159 2.83505C64.5992 3.09947 64.7182 3.38121 64.7182 3.736H66.7182C66.7182 2.81079 66.3572 2.00452 65.6805 1.37294L64.3159 2.83505ZM64.7182 3.736C64.7182 4.18577 64.5759 4.52006 64.2911 4.80489L65.7053 6.21911C66.3805 5.54394 66.7182 4.69423 66.7182 3.736H64.7182ZM64.2911 4.80489C64.0062 5.08973 63.672 5.232 63.2222 5.232V7.232C64.1804 7.232 65.0301 6.89427 65.7053 6.21911L64.2911 4.80489ZM74.3848 1.384V0.383998H73.3848V1.384H74.3848ZM77.7928 1.384H78.7928V0.383998H77.7928V1.384ZM77.7928 37V38H78.7928V37H77.7928ZM74.3848 37H73.3848V38H74.3848V37ZM74.3848 2.384H77.7928V0.383998H74.3848V2.384ZM76.7928 1.384V37H78.7928V1.384H76.7928ZM77.7928 36H74.3848V38H77.7928V36ZM75.3848 37V1.384H73.3848V37H75.3848ZM87.2754 1.384V0.383998H86.2754V1.384H87.2754ZM90.6834 1.384H91.6834V0.383998H90.6834V1.384ZM90.6834 37V38H91.6834V37H90.6834ZM87.2754 37H86.2754V38H87.2754V37ZM87.2754 2.384H90.6834V0.383998H87.2754V2.384ZM89.6834 1.384V37H91.6834V1.384H89.6834ZM90.6834 36H87.2754V38H90.6834V36ZM88.2754 37V1.384H86.2754V37H88.2754ZM121.382 11.752L122.295 12.1597L122.924 10.752H121.382V11.752ZM108.758 40.024L107.845 39.6163L107.84 39.6271L108.758 40.024ZM105.206 45.064L105.8 45.8686L105.8 45.8686L105.206 45.064ZM96.9501 45.976L97.2918 45.0362L97.2918 45.0362L96.9501 45.976ZM94.2141 44.248L93.3652 43.7194L92.9454 44.3936L93.507 44.9551L94.2141 44.248ZM95.7981 41.704L96.5052 40.9969L95.6147 40.1065L94.9492 41.1754L95.7981 41.704ZM103.334 42.664L102.724 41.8714L102.717 41.8772L102.709 41.8831L103.334 42.664ZM105.638 39.4L106.547 39.8167L106.55 39.8111L105.638 39.4ZM106.742 36.952L107.654 37.3631L107.838 36.9535L107.655 36.5434L106.742 36.952ZM95.4621 11.752V10.752H93.9188L94.5493 12.1606L95.4621 11.752ZM99.0141 11.752L99.9284 11.347L99.6648 10.752H99.0141V11.752ZM108.518 33.208L107.604 33.613L108.518 35.6771L109.432 33.613L108.518 33.208ZM118.022 11.752V10.752H117.371L117.108 11.347L118.022 11.752ZM120.469 11.3443L107.845 39.6163L109.671 40.4317L122.295 12.1597L120.469 11.3443ZM107.84 39.6271C106.851 41.9138 105.757 43.4145 104.612 44.2594L105.8 45.8686C107.343 44.7295 108.617 42.8702 109.676 40.4209L107.84 39.6271ZM104.612 44.2594C103.462 45.1082 102.061 45.552 100.358 45.552V47.552C102.431 47.552 104.262 47.0038 105.8 45.8686L104.612 44.2594ZM100.358 45.552C99.249 45.552 98.2296 45.3772 97.2918 45.0362L96.6083 46.9158C97.7825 47.3428 99.0351 47.552 100.358 47.552V45.552ZM97.2918 45.0362C96.3683 44.7004 95.5822 44.202 94.9212 43.5409L93.507 44.9551C94.3819 45.83 95.4199 46.4836 96.6083 46.9158L97.2918 45.0362ZM95.063 44.7766L96.647 42.2326L94.9492 41.1754L93.3652 43.7194L95.063 44.7766ZM95.091 42.4111C96.5564 43.8765 98.3458 44.624 100.406 44.624V42.624C98.8823 42.624 97.5998 42.0915 96.5052 40.9969L95.091 42.4111ZM100.406 44.624C101.755 44.624 102.959 44.2443 103.959 43.4449L102.709 41.8831C102.109 42.3637 101.361 42.624 100.406 42.624V44.624ZM103.944 43.4566C104.96 42.6748 105.812 41.4199 106.547 39.8167L104.729 38.9833C104.056 40.4521 103.372 41.3732 102.724 41.8714L103.944 43.4566ZM106.55 39.8111L107.654 37.3631L105.83 36.5409L104.726 38.9889L106.55 39.8111ZM107.655 36.5434L96.3748 11.3434L94.5493 12.1606L105.829 37.3606L107.655 36.5434ZM95.4621 12.752H99.0141V10.752H95.4621V12.752ZM98.0997 12.157L107.604 33.613L109.432 32.803L99.9284 11.347L98.0997 12.157ZM109.432 33.613L118.936 12.157L117.108 11.347L107.604 32.803L109.432 33.613ZM118.022 12.752H121.382V10.752H118.022V12.752ZM139.464 3.4V2.4H138.464V3.4H139.464ZM143.016 3.4H144.016V2.4H143.016V3.4ZM143.016 33.928H142.016V34.928H143.016V33.928ZM161.832 33.928H162.832V32.928H161.832V33.928ZM161.832 37V38H162.832V37H161.832ZM139.464 37H138.464V38H139.464V37ZM139.464 4.4H143.016V2.4H139.464V4.4ZM142.016 3.4V33.928H144.016V3.4H142.016ZM143.016 34.928H161.832V32.928H143.016V34.928ZM160.832 33.928V37H162.832V33.928H160.832ZM161.832 36H139.464V38H161.832V36ZM140.464 37V3.4H138.464V37H140.464ZM170.379 35.608L169.881 36.4754L169.892 36.4815L170.379 35.608ZM165.771 31L164.903 31.4977L164.903 31.4977L165.771 31ZM165.771 17.752L164.903 17.2543L164.903 17.2543L165.771 17.752ZM170.379 13.192L169.892 12.3185L169.892 12.3185L170.379 13.192ZM183.531 13.192L184.018 12.3185L184.018 12.3185L183.531 13.192ZM188.091 17.752L187.217 18.2389L187.223 18.2497L188.091 17.752ZM188.091 31L187.223 30.5023L187.217 30.5131L188.091 31ZM183.531 35.608L184.018 36.4815L184.028 36.4754L183.531 35.608ZM181.755 33.016L182.249 33.8855L182.255 33.8819L181.755 33.016ZM185.115 29.512L185.998 29.9816L185.998 29.9816L185.115 29.512ZM185.115 19.24L185.998 18.7704L185.998 18.7704L185.115 19.24ZM181.755 15.784L181.246 16.6449L181.258 16.6517L181.269 16.6582L181.755 15.784ZM172.107 15.784L172.601 16.6535L172.607 16.6499L172.107 15.784ZM168.747 19.24L167.872 18.7559L167.868 18.7631L167.864 18.7704L168.747 19.24ZM168.747 29.512L167.864 29.9816L167.868 29.9889L167.872 29.9961L168.747 29.512ZM172.107 33.016L171.598 33.8769L171.61 33.8837L171.621 33.8902L172.107 33.016ZM176.955 36.24C174.678 36.24 172.656 35.7323 170.866 34.7345L169.892 36.4815C172.006 37.6597 174.368 38.24 176.955 38.24V36.24ZM170.876 34.7406C169.078 33.7089 167.67 32.3005 166.638 30.5023L164.903 31.4977C166.112 33.6035 167.775 35.2671 169.881 36.4754L170.876 34.7406ZM166.638 30.5023C165.613 28.7159 165.091 26.6824 165.091 24.376H163.091C163.091 26.9976 163.688 29.3801 164.903 31.4977L166.638 30.5023ZM165.091 24.376C165.091 22.0696 165.613 20.0361 166.638 18.2497L164.903 17.2543C163.688 19.3719 163.091 21.7544 163.091 24.376H165.091ZM166.638 18.2497C167.668 16.454 169.073 15.0644 170.866 14.0655L169.892 12.3185C167.78 13.4956 166.113 15.146 164.903 17.2543L166.638 18.2497ZM170.866 14.0655C172.656 13.0677 174.678 12.56 176.955 12.56V10.56C174.368 10.56 172.006 11.1403 169.892 12.3185L170.866 14.0655ZM176.955 12.56C179.232 12.56 181.254 13.0677 183.044 14.0655L184.018 12.3185C181.904 11.1403 179.542 10.56 176.955 10.56V12.56ZM183.044 14.0655C184.834 15.063 186.22 16.4491 187.217 18.2389L188.964 17.2651C187.786 15.1509 186.132 13.497 184.018 12.3185L183.044 14.0655ZM187.223 18.2497C188.248 20.0361 188.771 22.0696 188.771 24.376H190.771C190.771 21.7544 190.173 19.3719 188.958 17.2543L187.223 18.2497ZM188.771 24.376C188.771 26.6824 188.248 28.7159 187.223 30.5023L188.958 31.4977C190.173 29.3801 190.771 26.9976 190.771 24.376H188.771ZM187.217 30.5131C186.218 32.3054 184.829 33.7103 183.033 34.7406L184.028 36.4754C186.137 35.2657 187.787 33.5986 188.964 31.4869L187.217 30.5131ZM183.044 34.7345C181.254 35.7323 179.232 36.24 176.955 36.24V38.24C179.542 38.24 181.904 37.6597 184.018 36.4815L183.044 34.7345ZM176.955 35.216C178.901 35.216 180.675 34.7799 182.249 33.8855L181.261 32.1465C180.019 32.8521 178.593 33.216 176.955 33.216V35.216ZM182.255 33.8819C183.861 32.9538 185.112 31.6467 185.998 29.9816L184.232 29.0424C183.518 30.3853 182.528 31.4142 181.255 32.1501L182.255 33.8819ZM185.998 29.9816C186.884 28.3155 187.315 26.4387 187.315 24.376H185.315C185.315 26.1533 184.946 27.7005 184.232 29.0424L185.998 29.9816ZM187.315 24.376C187.315 22.3133 186.884 20.4365 185.998 18.7704L184.232 19.7096C184.946 21.0515 185.315 22.5987 185.315 24.376H187.315ZM185.998 18.7704C185.11 17.1022 183.855 15.8069 182.24 14.9098L181.269 16.6582C182.535 17.3611 183.519 18.3698 184.232 19.7096L185.998 18.7704ZM182.264 14.9231C180.687 13.9914 178.908 13.536 176.955 13.536V15.536C178.585 15.536 180.007 15.9125 181.246 16.6449L182.264 14.9231ZM176.955 13.536C175.001 13.536 173.21 13.9915 171.607 14.9181L172.607 16.6499C173.883 15.9125 175.324 15.536 176.955 15.536V13.536ZM171.613 14.9145C170.035 15.8111 168.787 17.1012 167.872 18.7559L169.622 19.7241C170.37 18.3708 171.363 17.3569 172.601 16.6535L171.613 14.9145ZM167.864 18.7704C166.978 20.4365 166.547 22.3133 166.547 24.376H168.547C168.547 22.5987 168.916 21.0515 169.63 19.7096L167.864 18.7704ZM166.547 24.376C166.547 26.4387 166.978 28.3155 167.864 29.9816L169.63 29.0424C168.916 27.7005 168.547 26.1533 168.547 24.376H166.547ZM167.872 29.9961C168.786 31.6478 170.029 32.9495 171.598 33.8769L172.616 32.1551C171.369 31.4185 170.372 30.3842 169.622 29.0279L167.872 29.9961ZM171.621 33.8902C173.223 34.7798 175.008 35.216 176.955 35.216V33.216C175.317 33.216 173.871 32.8522 172.592 32.1418L171.621 33.8902ZM216.169 13.192L215.676 14.0621L215.687 14.0682L216.169 13.192ZM220.681 17.704L221.554 17.2171L221.554 17.2171L220.681 17.704ZM220.681 31.096L221.554 31.5829L221.554 31.5829L220.681 31.096ZM216.169 35.656L216.657 36.5288L216.662 36.526L216.169 35.656ZM204.169 35.992L203.701 36.8758L203.711 36.8812L203.721 36.8864L204.169 35.992ZM200.137 32.248L200.976 31.7047L199.137 28.8618V32.248H200.137ZM200.137 46.312V47.312H201.137V46.312H200.137ZM196.729 46.312H195.729V47.312H196.729V46.312ZM196.729 11.752V10.752H195.729V11.752H196.729ZM199.993 11.752H200.993V10.752H199.993V11.752ZM199.993 16.744H198.993V20.277L200.844 17.2681L199.993 16.744ZM204.025 12.904L203.557 12.0198L203.55 12.0235L204.025 12.904ZM214.297 33.016L214.782 33.8902L214.79 33.8861L214.797 33.8819L214.297 33.016ZM217.657 29.512L216.782 29.0279L216.778 29.0351L216.774 29.0424L217.657 29.512ZM217.657 19.288L216.774 19.7576L216.78 19.7689L216.786 19.7801L217.657 19.288ZM214.297 15.784L214.797 14.9181L214.797 14.9181L214.297 15.784ZM204.649 15.784L204.148 14.9181L204.14 14.9231L204.649 15.784ZM201.289 19.288L200.414 18.8039L200.41 18.8105L201.289 19.288ZM201.289 29.512L200.406 29.9816L200.41 29.9889L200.414 29.9961L201.289 29.512ZM204.649 33.016L204.14 33.8769L204.151 33.8837L204.163 33.8902L204.649 33.016ZM209.737 12.56C211.945 12.56 213.917 13.0654 215.676 14.062L216.662 12.322C214.58 11.1426 212.264 10.56 209.737 10.56V12.56ZM215.687 14.0682C217.439 15.0319 218.809 16.3994 219.807 18.1909L221.554 17.2171C220.377 15.1046 218.738 13.4641 216.65 12.3158L215.687 14.0682ZM219.807 18.1909C220.803 19.9772 221.313 22.0301 221.313 24.376H223.313C223.313 21.7299 222.734 19.3348 221.554 17.2171L219.807 18.1909ZM221.313 24.376C221.313 26.7563 220.802 28.8247 219.807 30.6091L221.554 31.5829C222.735 29.4633 223.313 27.0517 223.313 24.376H221.313ZM219.807 30.6091C218.807 32.4031 217.434 33.7896 215.676 34.786L216.662 36.526C218.743 35.3464 220.378 33.6929 221.554 31.5829L219.807 30.6091ZM215.68 34.7832C213.957 35.7469 211.985 36.24 209.737 36.24V38.24C212.288 38.24 214.604 37.6771 216.657 36.5288L215.68 34.7832ZM209.737 36.24C207.828 36.24 206.127 35.8534 204.616 35.0976L203.721 36.8864C205.538 37.7946 207.549 38.24 209.737 38.24V36.24ZM204.636 35.1082C203.163 34.3284 201.944 33.2012 200.976 31.7047L199.297 32.7913C200.441 34.5588 201.91 35.9276 203.701 36.8758L204.636 35.1082ZM199.137 32.248V46.312H201.137V32.248H199.137ZM200.137 45.312H196.729V47.312H200.137V45.312ZM197.729 46.312V11.752H195.729V46.312H197.729ZM196.729 12.752H199.993V10.752H196.729V12.752ZM198.993 11.752V16.744H200.993V11.752H198.993ZM200.844 17.2681C201.779 15.7488 202.995 14.5941 204.499 13.7845L203.55 12.0235C201.726 13.0059 200.254 14.4112 199.141 16.2199L200.844 17.2681ZM204.492 13.7882C206.03 12.9757 207.771 12.56 209.737 12.56V10.56C207.479 10.56 205.412 11.0403 203.557 12.0198L204.492 13.7882ZM209.497 35.216C211.415 35.216 213.183 34.7783 214.782 33.8902L213.811 32.1418C212.53 32.8537 211.099 33.216 209.497 33.216V35.216ZM214.797 33.8819C216.403 32.9538 217.654 31.6467 218.539 29.9816L216.774 29.0424C216.059 30.3853 215.07 31.4142 213.796 32.1501L214.797 33.8819ZM218.532 29.9961C219.455 28.3272 219.905 26.4451 219.905 24.376H217.905C217.905 26.1469 217.522 27.6888 216.782 29.0279L218.532 29.9961ZM219.905 24.376C219.905 22.3073 219.455 20.4375 218.527 18.7959L216.786 19.7801C217.522 21.0825 217.905 22.6047 217.905 24.376H219.905ZM218.539 18.8184C217.654 17.1533 216.403 15.8462 214.797 14.9181L213.796 16.6499C215.07 17.3858 216.059 18.4147 216.774 19.7576L218.539 18.8184ZM214.797 14.9181C213.196 13.9931 211.422 13.536 209.497 13.536V15.536C211.092 15.536 212.517 15.9109 213.796 16.6499L214.797 14.9181ZM209.497 13.536C207.543 13.536 205.752 13.9915 204.148 14.9181L205.149 16.6499C206.425 15.9125 207.866 15.536 209.497 15.536V13.536ZM204.14 14.9231C202.57 15.8505 201.327 17.1522 200.414 18.8039L202.164 19.7721C202.914 18.4158 203.911 17.3815 205.157 16.6449L204.14 14.9231ZM200.41 18.8105C199.519 20.4492 199.089 22.3138 199.089 24.376H201.089C201.089 22.5982 201.458 21.0708 202.167 19.7655L200.41 18.8105ZM199.089 24.376C199.089 26.4387 199.519 28.3155 200.406 29.9816L202.171 29.0424C201.458 27.7005 201.089 26.1533 201.089 24.376H199.089ZM200.414 29.9961C201.327 31.6478 202.57 32.9495 204.14 33.8769L205.157 32.1551C203.911 31.4185 202.914 30.3842 202.164 29.0279L200.414 29.9961ZM204.163 33.8902C205.764 34.7798 207.55 35.216 209.497 35.216V33.216C207.859 33.216 206.413 32.8522 205.134 32.1418L204.163 33.8902ZM251.244 25.432V26.432H252.199L252.243 25.4774L251.244 25.432ZM230.124 25.432V24.432H229.048L229.126 25.505L230.124 25.432ZM233.148 31.816L232.481 32.5613L232.488 32.5678L233.148 31.816ZM244.38 33.4L244.763 34.3237L244.772 34.3198L244.782 34.3156L244.38 33.4ZM247.788 30.904L248.542 30.2478L247.793 29.3863L247.038 30.2424L247.788 30.904ZM249.708 33.112L250.476 33.7522L251.021 33.0982L250.462 32.4558L249.708 33.112ZM245.484 36.184L245.1 35.2604L245.094 35.263L245.484 36.184ZM233.052 35.608L232.56 36.4788L232.569 36.4835L232.577 36.488L233.052 35.608ZM228.396 31L227.528 31.4977L227.528 31.4977L228.396 31ZM228.3 17.752L227.426 17.2651L227.42 17.2762L228.3 17.752ZM232.716 13.192L232.217 12.3255L232.21 12.3293L232.716 13.192ZM249.708 17.752L248.828 18.2278L248.832 18.2339L249.708 17.752ZM251.292 24.376L252.291 24.4214L252.292 24.3987V24.376H251.292ZM232.908 16.84L233.593 17.5682L233.594 17.5678L232.908 16.84ZM230.124 22.888L229.128 22.7986L229.03 23.888H230.124V22.888ZM248.028 22.888V23.888H249.122L249.024 22.7986L248.028 22.888ZM245.196 16.84L244.503 17.5611L244.51 17.568L244.518 17.5748L245.196 16.84ZM251.244 24.432H230.124V26.432H251.244V24.432ZM229.126 25.505C229.336 28.3661 230.449 30.7427 232.481 32.5612L233.815 31.0708C232.199 29.6253 231.296 27.7459 231.121 25.359L229.126 25.505ZM232.488 32.5678C234.522 34.3512 237.071 35.216 240.06 35.216V33.216C237.48 33.216 235.422 32.4808 233.807 31.0642L232.488 32.5678ZM240.06 35.216C241.746 35.216 243.317 34.9231 244.763 34.3237L243.997 32.4763C242.818 32.9649 241.51 33.216 240.06 33.216V35.216ZM244.782 34.3156C246.229 33.6805 247.483 32.7611 248.538 31.5656L247.038 30.2424C246.173 31.2229 245.155 31.9675 243.978 32.4844L244.782 34.3156ZM247.033 31.5602L248.953 33.7682L250.462 32.4558L248.542 30.2478L247.033 31.5602ZM248.94 32.4718C247.928 33.6854 246.655 34.6152 245.1 35.2604L245.867 37.1076C247.705 36.3448 249.247 35.2266 250.476 33.7522L248.94 32.4718ZM245.094 35.263C243.567 35.9092 241.861 36.24 239.964 36.24V38.24C242.098 38.24 244.073 37.8668 245.873 37.105L245.094 35.263ZM239.964 36.24C237.516 36.24 235.379 35.7274 233.527 34.728L232.577 36.488C234.757 37.6646 237.228 38.24 239.964 38.24V36.24ZM233.543 34.7372C231.714 33.7044 230.293 32.2964 229.263 30.5023L227.528 31.4977C228.739 33.6076 230.422 35.2716 232.56 36.4788L233.543 34.7372ZM229.263 30.5023C228.238 28.7159 227.716 26.6824 227.716 24.376H225.716C225.716 26.9976 226.313 29.3801 227.528 31.4977L229.263 30.5023ZM227.716 24.376C227.716 22.0595 228.211 20.0181 229.179 18.2278L227.42 17.2762C226.277 19.3899 225.716 21.7645 225.716 24.376H227.716ZM229.173 18.2389C230.178 16.4364 231.526 15.0489 233.222 14.0547L232.21 12.3293C230.194 13.5111 228.598 15.1636 227.426 17.2651L229.173 18.2389ZM233.215 14.0584C234.94 13.0642 236.878 12.56 239.052 12.56V10.56C236.554 10.56 234.267 11.1438 232.217 12.3256L233.215 14.0584ZM239.052 12.56C241.226 12.56 243.145 13.0642 244.834 14.0547L245.846 12.3293C243.823 11.1438 241.55 10.56 239.052 10.56V12.56ZM244.834 14.0547C246.527 15.0473 247.856 16.4312 248.828 18.2278L250.587 17.2762C249.447 15.1688 247.864 13.5127 245.846 12.3293L244.834 14.0547ZM248.832 18.2339C249.796 19.9868 250.292 22.0248 250.292 24.376H252.292C252.292 21.7352 251.732 19.3572 250.584 17.2701L248.832 18.2339ZM250.293 24.3306L250.245 25.3866L252.243 25.4774L252.291 24.4214L250.293 24.3306ZM239.052 13.488C236.383 13.488 234.084 14.3575 232.222 16.1122L233.594 17.5678C235.059 16.1865 236.857 15.488 239.052 15.488V13.488ZM232.222 16.1118C230.391 17.8357 229.371 20.0898 229.128 22.7986L231.12 22.9774C231.325 20.6942 232.161 18.9163 233.593 17.5682L232.222 16.1118ZM230.124 23.888H248.028V21.888H230.124V23.888ZM249.024 22.7986C248.78 20.084 247.74 17.8279 245.874 16.1052L244.518 17.5748C245.979 18.9241 246.827 20.7 247.032 22.9774L249.024 22.7986ZM245.889 16.1189C244.053 14.3553 241.749 13.488 239.052 13.488V15.488C241.283 15.488 243.075 16.1887 244.503 17.5611L245.889 16.1189ZM275.802 34.168H276.802V33.168H275.802V34.168ZM275.802 37V38H276.802V37H275.802ZM255.258 37H254.258V38H255.258V37ZM255.258 34.744L254.473 34.1241L254.258 34.3967V34.744H255.258ZM271.146 14.632L271.931 15.2519L273.211 13.632H271.146V14.632ZM255.546 14.632H254.546V15.632H255.546V14.632ZM255.546 11.752V10.752H254.546V11.752H255.546ZM275.514 11.752H276.514V10.752H275.514V11.752ZM275.514 14.008L276.3 14.627L276.514 14.3547V14.008H275.514ZM259.626 34.168L258.841 33.549L257.565 35.168H259.626V34.168ZM274.802 34.168V37H276.802V34.168H274.802ZM275.802 36H255.258V38H275.802V36ZM256.258 37V34.744H254.258V37H256.258ZM256.043 35.3639L271.931 15.2519L270.361 14.0121L254.473 34.1241L256.043 35.3639ZM271.146 13.632H255.546V15.632H271.146V13.632ZM256.546 14.632V11.752H254.546V14.632H256.546ZM255.546 12.752H275.514V10.752H255.546V12.752ZM274.514 11.752V14.008H276.514V11.752H274.514ZM274.729 13.389L258.841 33.549L260.412 34.787L276.3 14.627L274.729 13.389ZM259.626 35.168H275.802V33.168H259.626V35.168Z" fill="black"/>
</g>
<defs>
<filter id="filter0_d" x="0.625732" y="0.384033" width="280.176" height="55.168" filterUnits="userSpaceOnUse" color-interpolation-filters="sRGB">
<feFlood flood-opacity="0" result="BackgroundImageFix"/>
<feColorMatrix in="SourceAlpha" type="matrix" values="0 0 0 0 0 0 0 0 0 0 0 0 0 0 0 0 0 0 127 0"/>
<feOffset dy="4"/>
<feGaussianBlur stdDeviation="2"/>
<feColorMatrix type="matrix" values="0 0 0 0 0 0 0 0 0 0 0 0 0 0 0 0 0 0 0.3 0"/>
<feBlend mode="normal" in2="BackgroundImageFix" result="effect1_dropShadow"/>
<feBlend mode="normal" in="SourceGraphic" in2="effect1_dropShadow" result="shape"/>
</filter>
</defs>
</svg>
